/* XPM */
static char *_148125780444b33b812ce2fa3fe1d9atN8rp8k3DvCQya8U[] = {
/* columns rows colors chars-per-pixel */
"64 64 126 2 ",
"   c #721F0C",
".  c #7B1F0E",
"X  c #6F200C",
"o  c #74220E",
"O  c #7A240F",
"+  c #762411",
"@  c #7C2512",
"#  c #762B15",
"$  c #7D2A15",
"%  c #7E2D19",
"&  c #7F3017",
"*  c #7E321A",
"=  c #7F2E20",
"-  c #7F3222",
";  c #822612",
":  c #832A15",
">  c #892B15",
",  c #842D1A",
"<  c #8A2E1A",
"1  c #823117",
"2  c #883017",
"3  c #84331B",
"4  c #8A341C",
"5  c #86381E",
"6  c #8B391E",
"7  c #91351E",
"8  c #923B1E",
"9  c #832F22",
"0  c #8D2E20",
"q  c #843423",
"w  c #8B3523",
"e  c #863922",
"r  c #8C3B23",
"t  c #853728",
"y  c #8B3728",
"u  c #863A2A",
"i  c #8C3D2B",
"p  c #913623",
"a  c #923C23",
"s  c #9A3C24",
"d  c #933D2B",
"f  c #9A3D2C",
"g  c #853E31",
"h  c #933E30",
"j  c #8D4126",
"k  c #8D422C",
"l  c #8F482B",
"z  c #934125",
"x  c #994424",
"c  c #9A4927",
"v  c #93432C",
"b  c #9A452C",
"n  c #95482E",
"m  c #9C4A2D",
"M  c #874335",
"N  c #8D4332",
"B  c #8F4933",
"V  c #8C4638",
"C  c #8E4B3B",
"Z  c #934432",
"A  c #9A4532",
"S  c #944A34",
"D  c #9A4B35",
"F  c #924738",
"G  c #994739",
"H  c #954D3A",
"J  c #9A4D3A",
"K  c #9C5136",
"L  c #95513C",
"P  c #9C523D",
"I  c #9F583D",
"U  c #A34826",
"Y  c #A0422A",
"T  c #A24C2C",
"R  c #A34C34",
"E  c #A34E3B",
"W  c #A15034",
"Q  c #AC5235",
"!  c #A2543D",
"~  c #AB553C",
"^  c #A35A3D",
"/  c #AF5B3D",
"(  c #B1583F",
")  c #954E41",
"_  c #9A4F40",
"`  c #975342",
"'  c #9C5542",
"]  c #9D5945",
"[  c #9E5749",
"{  c #9E5B4A",
"}  c #A15542",
"|  c #AA5245",
" . c #A25A45",
".. c #A95C44",
"X. c #A05548",
"o. c #A35C4A",
"O. c #AA5D4C",
"+. c #B15B42",
"@. c #A35E50",
"#. c #9F6151",
"$. c #A96045",
"%. c #A5614E",
"&. c #AA624D",
"*. c #B1614E",
"=. c #A56353",
"-. c #AA6453",
";. c #AB6957",
":. c #A66759",
">. c #AB6758",
",. c #A66A5B",
"<. c #AC6B5C",
"1. c #B26753",
"2. c #B36D5C",
"3. c #AC705F",
"4. c #B3705F",
"5. c #AD6F60",
"6. c #B16D61",
"7. c #AD7264",
"8. c #B27364",
"9. c #B27769",
"0. c #B37A6B",
"q. c #B87C6E",
"w. c #B57E71",
"e. c #B97E71",
"r. c #BA8273",
"t. c #BD8A7D",
/* pixels */
"C b A i i Z h Z A V 7.| h i i G Z f v g ' 6.f y q u d d r u y F ` q - , q - t y q t o.H g u - u - t t q i { i v f i v t y f d M ",
"V % 3 , $ e i 7 r 4 -.R a r r a w 4 r 4 Z -.4 3 3 3 , , 1 3 3 v S ; $ O + O o o O > _ k 3 3 3 1 & # 3 3 3 S 5 r 8 i r & 3 5 2 q ",
"} 2 % # # 5 q 3 3 4 <.D z r r a 4 r a a Z :.4 3 * 4 3 $ : 3 3 F J > , + @ O o @ ; 2 ] m 4 3 4 6 4 6 4 5 6 D a 5 4 6 r 3 & 4 a f ",
">.} J J  .7.o. .' ] 7.%.]  .] <.<.I I '  .5.[ { { { =.' ' ' L >.-.G D S Z @.' S H P =.&. .I ' =.$.S D B S I v N H S ] P L ! } &.",
"4 4 3 6 Y 8.p 2 , < > < 4 4 < O. .< % @ + @ + + , , H j j c a z 3 5 z z k ;.a 6 4 2 : 2 , 2 4 S S < : @ + @ + ; > 4 H a 5 6 6 4 ",
"2 3 3 3 r <.@ ; $ + o o ; $ ; [ ! : @ +   O @ + $ ; v z 4 6 r j 1 * * 4 a ] > : $ + + + + : + j b : + o o @ o O ; : S 5 3 3 % : ",
"N N k S J 7.Z Z v f v i d i v 5.-.d i z d i i i r f { D k v N Z k j k m ~ <.b z y a w d i a a [ O.h i v v i i i r f =.F k k i u ",
"O.~ H J P ' L L L H q.&.D D S ! P D P P O.t. .J G J J J H P J ,.%.n v i k Z i i Z b <.#._ J J P ' J J ' @.t.' P P I ..! J L ~ O.",
"a 6 * & % e 6 4 4 3 1.Z + + + @ + ; : ; y 0.< , @ @   @ ; ; O H J > @ O o o o + > :  .k O ; ; O o ; @ $ a <.6 6 6 5 r a 6 r z b ",
"y 6 z 5 1 j z 8 j 6 =.u ; > : ; + ; $ < Z w.< > > ; @ > @ : @ o.} ; @ @ O O O @ $ ; O.J ; @ @ ; @ : , > p -.r r 8 r 6 z r z x A ",
"Z n m v n  .J P K S ;.=.[  . .-.=. .]  .<.t. .'  .} >. .P I ' <.>.H J P ' =.H S S J <.-.I } I %. .I I } O.9.o. .] ! %.' S S S J ",
"+ + % 2 r P 4 , $ @ $ @ $ , 4 ' o.e e q i u 3 * e s 0.J j z z s z z j b Q <.q 5 r * & q 5 e r L ! 4 3 w , % , , , < L a < , @ + ",
"O + + : 7 D > $ + o @ o + ; : S P 5 6 6 j 3 # % 3 1 ,.i 5 6 5 w a a r a m { 3 3 3 % , 2 3 5 3 n A > @ o + + o o @ $ S 4 > + + o ",
"y r r y A  .r 4 r 4 e 5 9 q p _ %.k T b D v r b m z <.K D A n n n S n m ! -.z z z j v z j r f ..O.i t , % 3 9 - y i { b r t r t ",
" .! L J D J S n D Z 3.] ^ I J  .&.{ %.] ] 8.} ! ! ! O.{ ] '  .8.;.J J ' ] ] G G G D 7.>.L J P ] @.] ] [ :.r. . .}  .&. .! ] } -.",
"y > $ ; o o $ : ; ; ] r 8 6 3 , v 6 8 6 r o., : + @ @ + ; : ; A A > : @ O O + @ $ ; { d : $ :   O ; : . r q.: ; + @ O @ : : ; h ",
"d ; : : O @ + @ ; 1  .x 4 3 : 3 6 5 4 3 a =.; ; : ; O o ; $ : n Z > O o         @ @ [ p ; > > @ ; @ $ $ S 0.@ ; ; ; + + @ : > Z ",
"5.[ I ]  .O.} P P } 3.&.! H J L ] L H H  .0.' P _ ] } G E L ! -.<.' H F H X.H ` [ { 0.-.} ' '  . .D K D  .0.[ _ ' J  .[ } ' } 5.",
"A n R n L <.p w q 4 q q 6 w w } ;.d r d y r d i d i <.H m m z k D Z K m S 6.Q m v Z b m n n n o. .a r 4 < 3 p 4 4 q <.S m m i i ",
"i w 6 6 z { > $ + o O @ o + > v J : : @ o o @ O @ @ ;.d 5 5 3 & k a 8 5 r O.x a r a a r 5 r 5 S G ; $ @ + o + + @ ; %.i 1 & % $ ",
"u e q e Z ,.4 4 $ + : @ $ , 4 D  .7 6 6 2 2 4 < 6 w 8.R r 5 5 3 r e 5 5 a 1.D v j z v a a b z P -.p r 4 w 4 r 4 w a ;.R 4 * 3 * ",
"<.%.o. .=.<. .}  .] 5.' F K J ] { P D P X.0. .]  . .;. .P P ! ;.=.P ^ H L ;. .o.$. .5.] I  .] -.5.O.I  .&.7.I .. .P @.I K P L =.",
"G > < > > ; : $ > 4 2.7 : $ O O O @ @ ; w <.6 r z 6 6 a r r s *.P 6 x a v 3 1 4 8 3 -.y 4 3 1 3 3 3 3 4 f >.3 8 3 : 3 v 8 z 5 v ",
"F , $ $ o o O ; @ @ =.4 : o O o o o $ ; w %.4 8 6 4 6 a 6 a z ..D 1 4 3 6 % # # % w 5.3 1 1 % % 2 3 1 3 r 8.2 % # # % r 3 4 4 d ",
"O.b j v k J J H J ) 7.S v k u Z v u f Z X.0.} ! P J  .] L ! P 4.-.N S S ` ` H B F } r.' S S F H H S H H ] e.O.L P P { L C H S { ",
"u e e v Q ;.n n n b Z z v z b <.=.k k k B B k k k R 0.H d u t y q q q d J r.A b b A v b z b b 5.@.p y r r u d v i v ..m r i r k ",
"1 * 5 4 j P : $ + + + @ ; % ; G K 3 r 4 r 3 # % % 3 -.% @ o   o o o + > p :.< ; @ @ + @ + @ + { P ; $ + + + o + @ > b j 5 6 r j ",
"5 e z c n ] : 2 2 < ; @ : 1 7 P I j c r b 5 3 5 x r o.w > : , $ : : 3 , f 9.p 3 , > + < < < > [ ' < > @ @ @ + $ : 4 D k j m a Z ",
"P S D N D J r y k v =. .} ' ] &.=.' ' L &.8.X.! ! H o.E F L P =.<... . . .7. .P  . .7. .` o. .-.=.K L P  . .Z Z S J o.@.&.O.{ -.",
"q > + @ o O + + 3 > :.u ; : : ; o > % < A <., > + O @ + @ $ > S  .< : 2 , ; ; % : 2 8.b 5 5 q 5 3 3 5 6 U D > : $ : $ @ : ; < h ",
"0 ; @ o O @ o O $ > =.i @ @ @ O + @ : ; d #., ; + + O + o + > G [ > @ ; o o O ; ; @ :.j 5 z a k & 3 4 r r k @ @     .     @ > y ",
"} H G J H H G H A G 0.O.D D A E D D D D O.5.i i r d k i b f i O.0.G Z G S J D H S H 7.K n K n D S j m T n =.J G N i h g u i Z o.",
"H K ! K  .3.H L H B F N N S k :.4.W L H K ! D D n H r.O.H N l L [ C S B ] 8.H n k i d y q r a } { r j u y k B B S S <.~ D D K L ",
"4 4 r 6 k ] 4 1 & 3 1 $ & 3 % B ..8 6 r a 6 5 r 6 4 <.Z : # # $ 5 3 4 3 z { : ; o o o o @ + > d k 3 3 3 % 3 3 1 1 6 I Y j r r 8 ",
"a 6 r 6 Z &.7 4 3 3 2 4 4 5 4 S ..z j r z 6 w a z r =.j 6 6 3 3 v r x j n o.> : @ $ $ @ $ : : b S 4 4 5 4 4 5 3 6 8 ..R z r j 8 ",
"8.<.5.<.8.0.=.O.o.;.9. .P I P =.<...] ] %.8.=.O.%.%.4.%.$.$. .%.%.P ^ ] o.=.D S S D %.' J D H  . .I ]  .&.;...P P  .<.-. .] P } ",
") 9 q w 7 , , q r d 9.w > : : % : : , , a ;.p 3 2 < : 2 , , 2 J G : : : $ $ : % : < %.k > 2 : > + > : 4 a  .s 5 4 5 4 w 5 4 4 w ",
"H @ @ @ + o @ ; $ > :., O o o o o o + > 7 ] < ; $ @ + + @ ; + S b : + o o o o o $ > ] r + $ @ o + $ $ $ < ] 4 3 3 3 3 # 1 3 3 % ",
" .r a 4 a r a z d f 9.) d u q y q - q d J <.b b y r y s r d a ]  .a y q t y q y d d <.E v v r b d z z b ! 6.H H B N Z i i z i H ",
"Z k k i n 4.P L P L O. .] ] ..4.=.P ^ P {  .D P ^ P <.@.' ' ' X.] J J P &.r.P ^ ^ L o.K J ^ ^ #.<.S k g Z _ F F J ' 5.+.! S S S ",
"r r 6 5 a %.6 r r 5 6 a 6 a 8 / H 5 x 6 z 3 & 3 8 3 %.u O ; ; O   ; $ : d 5.w r 8 r r % 1 3 1 H G > + o   o     + ; H x 4 3 & & ",
"k r a r a ] 6 8 a 4 6 z r z z  .K 6 e 4 r 3 & & 4 8 ;.z ; $ $ @ @ : : > p 8.4 4 3 5 5 % # % 2 ^ ~ > : ; O @ O $ $ > H r 8 6 3 1 ",
">.@.%.{ { 5.I I K ] %.L S S S ..I i k v S { I L ' } 8.X.K H S  . .D P K  .0.{ ` L ' %.P S H P -.O.J J I  .o.J J Z D  .P K K D P ",
"H 9 3 % $ $ @ % , r  .d 2 % @ $ @ @ , 4 r 5.w 4 < 4 , % 2 4 6 &.-.4 3 4 , , 3 , , < J c r 5 5 r 5 5 5 a T =.a r 3 : $ < 3 > > u ",
"u @ @ o . + o + : > D 4 : + o O + o @ : q <., @ @ + + @ ; $ ; ' } > @ + o o + X @ @ k j 5 8 4 v % & q 5 r o.< : : + o + + $ + q ",
"F 4 4 4 q y w a p a ..A y r r y e w 4 w f q.A a r a d a d d a -.-.y q % = , , 3 w i ] S l m v S j a c T Z 8.A a a d r d r z z h ",
"J n D D o.5.D S H L ] ' P J J >.5.J S S H { [ L L L 0.&.I I P ]  .K I I o.0.D G D P } A D P K -.-.S H H ' { ' S H  .r. .P D D J ",
"@ + $ @ Z O.; @ O O O O + ; > ! &.: # # # 5 4 3 4 3 -.D a r r a 4 q r 8 v =.@ ; ; ; o O ; % > Z D 3 3 3 5 & # # % 4 9.p ; : > @ ",
"; ; : ; y { @ @           + > E { % 6 1 % 5 a 8 a 5 :.W a 6 r a a 6 6 5 n <.: $ @ @ O O > : > G H 5 z 7 d 3 % 3 6 1 7.d : $ ; o ",
"-.=.@.o.,.0.[ ' ) H ] H F H ' 7.5...$.o.o.;.{ o.&.%.w.1. .'  .$.O.O.$.o.>.q.} ]  .} -. .' '  .8.7.%.&. .@.<.]  ...I 0.>. .' X.] ",
"[ p w , , , , 3 w a  .( m v z A b b n b P >.p w w w q 3 q 4 p _ { z m z i Z A m R N 9.X.z S m b A n k D ~ 8.f w r a 4 w q r a v ",
"V : $ + o + + o @ > D m z j r a r 5 r r r I > @ o o + + o @ ; S ] % & % : 5 r 6 6 6 =.v 5 r q r a r r z b  .> $ @ +   @ + ; + q ",
"H < : , : 3 , 3 , 4 } K z r j v a r z z n o.7 , : $ @ , @ < < ' -.a 3 * 5 u r q e y <.D v x a r z z z v D =.a r 3 4 , 4 4 4 < i ",
" .G P I { 7...$. .] -. .P  .' -.%.D H D L { P I H _ >.=.[ { { -.=. .' ] >.0.{ ]  .{ ;.o.] .. .=.8. .X.] o.<.%.$.o.o.9.] ..^ P X.",
"k a z 6 z <.3 8 4 3 3 v 8 x 6 P J ; $ @ @ @ + $ : > } u @ > ; ; o ; @ < f ,.5 8 8 a r 3 3 8 6 H o.> > < ; @ ; $ > , 3.j 4 6 3 : ",
"u 3 2 3 d 8.3 % # $ & r 3 4 3 P H > : + o O o + $ >  .Z @ @ + @ + : : ; p -.6 5 5 r r % 1 1 6 D @.> $ @ O o @ ; @ @ ,.b 1 % # # ",
"` L L H  .e.! l N B ` ` B B N &.%.d d q u f r i i v <.-.K K D ! J K D K O.0.S n v S S S n S K 1.9.D S G D P G H G H 7.O.J S S H ",
"' d i y y r q y a v ;.( m k r k k j j j n o.z n n b D D Z k m ..O.d d v i i i r y p  .D r r - y y q i z D :.b v r p w a r p p N ",
"y > + o + o o o : : P z 5 * & 3 j r 6 5 8 P 3 3 3 1 3 3 3 3 4 n G > $ +   @ o o $ @ S 7 > + + o o o + : 3 ' < @ @ @   + + : @ 9 ",
"h > : : @ $ : ; , > ' k z z e 4 b a c j j  .3 4 2 % % 5 * 5 5 H  .< : +   @ @ @ > , ' a > : $ ; # ; $ > 4 %.a < 4 4 > , , , 4 r ",
"@.[ ' ..o.:.H H S A X.' K P D %.<.H ' P ' =.L H ' L ;.o.L ! ' %.;.] } L o.5.[ { { #.:.P S H S =.-.D Z D _ 5.-.{ { { 9.2.=.&.%.=.",
"> , : 1 Z >.4 2 : : O ; : > ; H L 1 4 , $ 3 4 3 4 5 %.D z a r a 6 6 z 8 Z -.5 4 3 3 , % 1 3 3 H o.4 1 : + @ ; , > $ 5.h < 2 < > ",
"O O $ O t -.< @ ; @ + @ O @ @ S S , 3 3 % 3 , 3 3 4  .R a w r p 4 5 4 r Z -.4 3 & 3 3 , 3 1 , i _ ; @ > @ . @ + @ % 7.d : @ @ o ",
"w y t t M 7.h y y r y y y y i ' H y u i d d h t y d :.| G N i G A A Z g [ 6.f u u i d d d u t ) O.h i d y h d y h h 0._ w 9 q % "
};
