/* XPM */
static char *_3eb6b3567374656ef85196a244ea5375iSF9kUQKocCW3HN[] = {
/* columns rows colors chars-per-pixel */
"16 16 235 2 ",
"   c #854628",
".  c #892F31",
"X  c #873231",
"o  c #5C4546",
"O  c #843334",
"+  c #842F2F",
"@  c #883333",
"#  c #863232",
"$  c #842D2E",
"%  c #5B4544",
"&  c #8D3838",
"*  c #8F3031",
"=  c #822D2E",
"-  c #833030",
";  c #863031",
":  c #7B4426",
">  c #975E2B",
",  c #9B686A",
"<  c #8F6666",
"1  c #967B79",
"2  c #9E7672",
"3  c #97696A",
"4  c #986B6B",
"5  c #9E7470",
"6  c #9D7473",
"7  c #8B7278",
"8  c #9A6B6B",
"9  c #A87372",
"0  c #9C6768",
"q  c #906D6E",
"w  c #875C2E",
"e  c #77444B",
"r  c #8E797A",
"t  c #90928C",
"y  c #846F79",
"u  c #977A90",
"i  c #B7B8B1",
"p  c #AEAAA7",
"a  c #928090",
"s  c #9A7B80",
"d  c #BA9E86",
"f  c #B1B4AF",
"g  c #896A84",
"h  c #8B6B7F",
"j  c #A4A299",
"k  c #877274",
"l  c #462C33",
"z  c #A73535",
"x  c #A1908C",
"c  c #8E7C92",
"v  c #582B5B",
"b  c #4B1B4D",
"n  c #6E3171",
"m  c #998A9A",
"M  c #5D2265",
"N  c #661E4E",
"B  c #A07B73",
"V  c #6D2E75",
"C  c #4C194D",
"Z  c #5B295F",
"A  c #96809B",
"S  c #8A817C",
"D  c #7B2E2E",
"F  c #7C2C2C",
"G  c #B09795",
"H  c #6D576F",
"J  c #580B59",
"K  c #5C145D",
"L  c #3C003C",
"P  c #734E73",
"I  c #632261",
"U  c #612165",
"Y  c #6F5078",
"T  c #3F003D",
"R  c #4F144F",
"E  c #641266",
"W  c #6A4E6C",
"Q  c #96807D",
"!  c #723031",
"~  c #884D4C",
"^  c #AF8D92",
"/  c #5F1F63",
"(  c #40163F",
")  c #5E0E5F",
"_  c #590059",
"`  c #4F0B4F",
"'  c #531153",
"]  c #531152",
"[  c #4C0B4A",
"{  c #540054",
"}  c #681268",
"|  c #542553",
" . c #4A1C4C",
".. c #9C7D81",
"X. c #593F3E",
"o. c #A43E3B",
"O. c #99717B",
"+. c #5D2760",
"@. c #4E104D",
"#. c #490949",
"$. c #5A005B",
"%. c #530853",
"&. c #6D186F",
"*. c #550855",
"=. c #620062",
"-. c #550C55",
";. c #3D063C",
":. c #552359",
">. c #A97685",
",. c #683C38",
"<. c #82504C",
"1. c #7F5969",
"2. c #520254",
"3. c #561055",
"4. c #4F0D4F",
"5. c #510551",
"6. c #530C52",
"7. c #6B2E6D",
"8. c #6C2C6E",
"9. c #550555",
"0. c #4B0D4B",
"q. c #4B0F4A",
"w. c #56015A",
"e. c #9F6980",
"r. c #624944",
"t. c #A03232",
"y. c #9F8989",
"u. c #724B73",
"i. c #561654",
"p. c #551054",
"a. c #581D57",
"s. c #541054",
"d. c #531653",
"f. c #551055",
"g. c #571D56",
"h. c #50104F",
"j. c #591757",
"k. c #744975",
"l. c #8A7A79",
"z. c #722929",
"x. c #7E2E2E",
"c. c #AA9290",
"v. c #622863",
"b. c #49004D",
"n. c #500C55",
"m. c #59165D",
"M. c #581558",
"N. c #4E004E",
"B. c #59165E",
"V. c #4F0C54",
"C. c #4D0052",
"Z. c #632564",
"A. c #91817E",
"S. c #692828",
"D. c #84494A",
"F. c #BE9A98",
"G. c #ADAEB3",
"H. c #85606C",
"J. c #73385F",
"K. c #84516F",
"L. c #50004E",
"P. c #550D55",
"I. c #AEAEB3",
"U. c #B69896",
"Y. c #5B3E3E",
"T. c #A43535",
"R. c #A78686",
"E. c #B7BFC0",
"W. c #A17C57",
"Q. c #AB5D12",
"!. c #A8773D",
"~. c #83617B",
"^. c #520353",
"/. c #A8783D",
"(. c #C0C8C9",
"). c #B99595",
"_. c #653535",
"`. c #824C4C",
"'. c #9E8484",
"]. c #AFADAD",
"[. c #ACA8A5",
"{. c #A99581",
"}. c #745271",
"|. c #520B4F",
" X c #550B55",
".X c #ABA8A5",
"XX c #B1B0B0",
"oX c #A18787",
"OX c #594141",
"+X c #862020",
"@X c #887676",
"#X c #9B8585",
"$X c #A49394",
"%X c #ADA4A5",
"&X c #A0949E",
"*X c #A19CA5",
"=X c #5F2763",
"-X c #A096A0",
";X c #ADA4A4",
":X c #A69293",
">X c #9B8484",
",X c #867272",
"<X c #691D1D",
"1X c #760000",
"2X c #680707",
"3X c #712D2D",
"4X c #794D4D",
"5X c #816464",
"6X c #957D7C",
"7X c #AA938F",
"8X c #957E85",
"9X c #A9938F",
"0X c #967775",
"qX c #806666",
"wX c #725555",
"eX c #6B2626",
"rX c #670303",
"tX c #730000",
"yX c #483030",
"uX c #462A2A",
"iX c #452525",
"pX c #3F2424",
"aX c #373030",
"sX c #404343",
"dX c #544D4E",
"fX c #776564",
"gX c #796765",
"hX c #504B4C",
"jX c #3B3334",
"kX c #332C2B",
"lX c #352A2A",
"zX c #462626",
"xX c #482A2A",
"cX c #462E2E",
"vX c white",
/* pixels */
"  . X o O + @ # $ % & * = - ; : ",
"> , < 1 2 3 4 5 6 7 8 5 9 0 q w ",
"e r t y u i p a s d f g h j k l ",
"z x c v b n m M N B V C Z A S D ",
"F G H J K L P I U Y T R E W Q ! ",
"~ ^ / ( ) _ ` ' ] [ { } |  ...X.",
"o.O.+.@.#.$.%.&.&.*.=.-.;.:.>.,.",
"<.1.2.3.4.5.6.7.8.-.9.0.q.w.e.r.",
"t.y.u.i.p.a.s.d.d.f.g.h.j.k.l.z.",
"x.c.v.b.n.m.M.N.N.M.B.V.C.Z.A.S.",
"D.F.G.H.J.K.L.P.P.L.K.J.H.I.U.Y.",
"T.R.E.W.Q.!.~.^.^.~./.Q.W.(.)._.",
"`.'.].[.{.}.|. X X|.}.{..XXXoXOX",
"+X@X#X$X%X&X*X=X=X*X-X;X:X>X,X<X",
"1X2X3X4X5X6X7X8X8X9X0XqXwXeXrXtX",
"yXuXiXpXaXsXdXfXgXhXjXkXlXzXxXcX"
};
