/* XPM */
static char *ac29d66fdcd54e85d74c433e22b9214fJolaHI9X5LCVR7ey[] = {
/* columns rows colors chars-per-pixel */
"64 64 256 2 ",
"   c #0C0404",
".  c #0B0A0C",
"X  c #060602",
"o  c #130B0B",
"O  c #180807",
"+  c #1C1C04",
"@  c #0B0E11",
"#  c #0E1215",
"$  c #121314",
"%  c #13161A",
"&  c #141A1C",
"*  c #1B1C1B",
"=  c #191815",
"-  c #150F10",
";  c #271715",
":  c #341918",
">  c #29120E",
",  c #1D221D",
"<  c #1A2218",
"1  c #1E2405",
"2  c #292804",
"3  c #353102",
"4  c #23231D",
"5  c #2A2719",
"6  c #382819",
"7  c #39361B",
"8  c #2F3115",
"9  c #0D1925",
"0  c #151C23",
"q  c #1B1E22",
"w  c #181E2B",
"e  c #1F1E32",
"r  c #231D24",
"t  c #1C2224",
"y  c #1D232C",
"u  c #17242A",
"i  c #1C2834",
"p  c #1E343F",
"a  c #232423",
"s  c #242924",
"d  c #2B2B24",
"f  c #23252B",
"g  c #252A2C",
"h  c #2B2B2C",
"j  c #2A2528",
"k  c #352A26",
"l  c #2C312A",
"z  c #33322C",
"x  c #393625",
"c  c #222533",
"v  c #242A33",
"b  c #2B2D33",
"n  c #272B3A",
"m  c #342A33",
"M  c #2D3234",
"N  c #2D323B",
"B  c #2A3836",
"V  c #333434",
"C  c #3B3A35",
"Z  c #33353C",
"A  c #35393C",
"S  c #3B3B3C",
"D  c #393736",
"F  c #43381B",
"G  c #4F3518",
"H  c #463927",
"J  c #433D36",
"K  c #50322F",
"L  c #6A3631",
"P  c #3B4335",
"I  c #3E401B",
"U  c #595519",
"Y  c #4A431B",
"T  c #685318",
"R  c #494528",
"E  c #544A26",
"W  c #5A5527",
"Q  c #4D4A34",
"!  c #474538",
"~  c #544A38",
"^  c #5A5638",
"/  c #4D5430",
"(  c #665927",
")  c #645A37",
"_  c #704E2F",
"`  c #65642A",
"'  c #786828",
"]  c #696539",
"[  c #746B37",
"{  c #7A7437",
"}  c #6B7436",
"|  c #716623",
" . c #2C3645",
".. c #3C3D42",
"X. c #353946",
"o. c #303648",
"O. c #583945",
"+. c #703A4A",
"@. c #3A4348",
"#. c #2C4558",
"$. c #384757",
"%. c #3C545A",
"&. c #32484E",
"*. c #294C64",
"=. c #364C65",
"-. c #2B536A",
";. c #365669",
":. c #345B73",
">. c #2E5973",
",. c #38647B",
"<. c #464A4C",
"1. c #474847",
"2. c #564A46",
"3. c #58554A",
"4. c #494A54",
"5. c #564657",
"6. c #4A5356",
"7. c #575758",
"8. c #4D544D",
"9. c #66594C",
"0. c #635A54",
"q. c #704E52",
"w. c #53634A",
"e. c #686446",
"r. c #796A4A",
"t. c #686459",
"y. c #76685B",
"u. c #76764C",
"i. c #465866",
"p. c #545B64",
"a. c #4E5773",
"s. c #70506D",
"d. c #476168",
"f. c #536774",
"g. c #696A67",
"h. c #726E63",
"j. c #76686A",
"k. c #78756A",
"l. c #666D75",
"z. c #6A767A",
"x. c #787878",
"c. c #6B706D",
"v. c #853A3D",
"b. c #85732A",
"n. c #877937",
"m. c #8A762A",
"M. c #8A374F",
"N. c #973C67",
"B. c #8A4E58",
"V. c #876857",
"C. c #8B6F52",
"Z. c #8C4768",
"A. c #857767",
"S. c #977869",
"D. c #867B74",
"F. c #92746E",
"G. c #A37C6A",
"H. c #A97E5E",
"J. c #7A843D",
"K. c #7A8368",
"L. c #95863A",
"P. c #938432",
"I. c #A08827",
"U. c #868747",
"Y. c #969049",
"T. c #A69A50",
"R. c #B5A752",
"E. c #898576",
"W. c #988879",
"Q. c #938870",
"!. c #A78877",
"~. c #B28A79",
"^. c #AF8C77",
"/. c #AEA270",
"(. c #C5B55A",
"). c #D7BB5A",
"_. c #C8B863",
"`. c #C8B670",
"'. c #D7C55E",
"]. c #DAC765",
"[. c #DFCA71",
"{. c #E5CB66",
"}. c #E9D470",
"|. c #E2C05A",
" X c #5C728B",
".X c #6C7B8A",
"XX c #6D7BA3",
"oX c #768591",
"OX c #798CAB",
"+X c #888787",
"@X c #988C85",
"#X c #9C9385",
"$X c #9A9489",
"%X c #889497",
"&X c #979798",
"*X c #888D90",
"=X c #A68C84",
"-X c #A79687",
";X c #B59988",
":X c #A99C97",
">X c #B09494",
",X c #9AA995",
"<X c #B1A894",
"1X c #8796A7",
"2X c #889AB5",
"3X c #97A7B7",
"4X c #93A5B3",
"5X c #A7A7A5",
"6X c #A9B6B9",
"7X c #B8B9B8",
"8X c #B2AFAD",
"9X c #AB9EA9",
"0X c #C59986",
"qX c #CE9E90",
"wX c #CFA994",
"eX c #CBB5AE",
"rX c #B7C2BB",
"tX c #C8C8B8",
"yX c #D1C9B0",
"uX c #E5D797",
"iX c #9AABC6",
"pX c #9DB3C8",
"aX c #A9B7C6",
"sX c #B8BCC7",
"dX c #A9BAD2",
"fX c #B1BBCF",
"gX c #909FC0",
"hX c #B9C4CB",
"jX c #B7C6D7",
"kX c #ACC2D3",
"lX c #B8CCE6",
"zX c #B5CCE3",
"xX c #C6C9C9",
"cX c #C5CCD6",
"vX c #CAD3DA",
"bX c #D5D7D9",
"nX c #D3D3CB",
"mX c #E2D6D2",
"MX c #E9E7D5",
"NX c #C9D7E7",
"BX c #D4DCE4",
"VX c #DBDCE3",
"CX c #D7D9E9",
"ZX c #D2D8EF",
"AX c #E2DFE5",
"SX c #DBE3E9",
"DX c #D8E6F6",
"FX c #CDE0EE",
"GX c #E6E6E9",
"HX c #E4EBF2",
"JX c #E6EAF8",
"KX c #EAF2F9",
"LX c #F9F7F9",
"PX c #F4F0EC",
"IX c #DCE2D8",
"UX c #C0BED6",
/* pixels */
"e e e 0 & & < u B l j m h a ; a < * & 0 u u w 9 9 p #.#.#.#.;.*.;.*.*.-.>.:.>.-.*.o.#.o.o.#.B v v g f q q - .   o   - : k k K +.",
"c c y t , , u s l h h m h r 4 , * * * 0 w w 9 9 i 9 p #.%.%.;.=.;.*.>.:.*.>.,.>.*.*.#.o.&. .B v v b f r & @ .   O   O : : H K ~ ",
"n v y t t t g b h m m m m j 4 , = & 0 0 9 9 9 9 u i #.%.%.$.i. Xf.;.;.:.-.:.,.>.;.=.$.$.#.X.N v c c t q 0 - @ X o   O > : : K K ",
"Z v y t u y g h b m m m h j a ; = % & 0 9 9 9 w 9 B &.@.g y c 6.f.;.;.;.:.:.:.:.;.;.=.=.&.X. .i g f t q % @ . X     O ; : : : K ",
"..M t u t g v b c m m k k : r ; = $ & 0 9 % 9 0 t P 1.h ; * = a @.i.i.-.:.:.>.>.*.=.$.$.=.o.o.i f y t & # @ . X   o O > : : : : ",
"A M g u u g b m m K : k k H 6 5 * % & 0 0 9 % & f P 5       O   o <.f.%.:.,.:.-.*.#.$.$.4.o. .p y y 0 & # @ . .   . O ; ; : > : ",
"N M y t i g M D K m 6 F G K G H a q 0 q w 0 % & l J     O > 6 > O j 4.i.-.>.:.-.o.=.o.4.$.X.o.i u 0 0 & # @ . X     O ; > : : : ",
"N v i y i M Z C K H 6 G G T E E d a q w r 0 $ = ! ! O F Q.~.0XS.K O l d.:.-.>.*.*.o.=.4.=.O.o.n y t 0 & # @ . X . . O - > > : > ",
"v f w i y c D ! J E G G T | | T ! v t y t & * j 9.7 F ;XeXwXqXqX!.K X #.;.,.*.#.#.$.O.4.O.$.o.n u 0 & % # @ . . . o o - > ; ; : ",
"v c w y y g C Q ~ ( T T T b.b.( R M f f y r h J 3.: C.wXqXwXwX0XwXF.= @.;.:.:.=.$.O.5.5.a.O.o. .i 0 0 & # @ . .   . o O - > ; > ",
"c y w i y g P ^ ) ' ' | | b.| T ! M g g g b <.j.3.H wXwXwXwXqXqX~.;Xj @.a.>.:.$.5.5.s.s.s.O.o.n f t q q 0 # @ . . . o o - > ; ; ",
"c e y y i h P ] [ n.b.b.b.b.b.( ! m f g N 1.g.+Xt.9.uX~.~.qXqX0X0XeX3.Z :.=.a.a.a.+.s.q.s.5.o. .v g f t q # @ @ - - - . - - - ; ",
"n e w y u l P ^ n.n.n.b.b.b.T _ C d t h @.7.x.:X9.~ ;Xe.G H.0Xv.G G.3.B d.,.=.a.s.s.B.q.s.+.O. .N b j f q % - $ % % - - - - ; r ",
"n y 0 w t , I W n.n.n.b.b.T _ G k a q b 4.c.+X5X9.A.;X_ G ~.0XG _ !.h.y ;.d.i. Xs.Z.N.B.q.O.o.n b b b f r % % * = % % $ - - % ; ",
"X.c w t t s 7 E [ n.n.n.| T G 6 4 * q m 7.x.&X8X2.A.;XV.B.~.G._ _ S.D.N i.a.a.a.s.Z.Z.B.+.O.o. .m j j f q q * a a q , * % ; ; r ",
"<.b w f u , x E ) { n.' T E 6 ; ; = r S 0..X5X7Xy.y.eXwX0XqXwX~.H.wX#XP i.:.a.a.Z.N.N.M.+.O.O.e b b b r r q a f h s t ; r r r r ",
"4.Z q w b f k R ] { n.[ W G ; + = % t A 7.+X:X8XW.!.eXwX0XG.H.~.;XqXqXj.l.d.d.a. XZ.N.M.+.K k s r j 4 a q q r g h d d d d d h r ",
"1.V w e c j z Q ] { { ' W 3 2 = = % t A t.+X:XeX>X0XqX0X0Xv.L B.0XqXqX=Xz.;.:. XZ.N.N.M.L K x 8 j j a a r q a h z l l d d b b j ",
"1.V w c n f z Q ] [ { ` E Y 2 1 = = t A p.D.:X9X!.~.~.qXqXV.V.H.0X~.G.>Xx.%.;.f. XN.M.M.L K F H d d a a r t j b M z l l m M b j ",
"C b t y c f V ~ ] [ { ' ( Y F 8 < < , M 7.x.>X<X!.S.~.~.H.S.~.C.^.~.S.@Xg.i.f.i.s.N.M.M.L L E R x k a a t a c N M M M l b m b r ",
"V g w w i e M Q e.] { { } U / I x t < l 1.c.$X:X-XQ.~.!.V.C.C.9.C.G.G.:Xg.%.d.p.s.+.N.M.v._ ( E R z d f a t c b M M M b b b g r ",
"l u 0 w e i b 1.^ ] u.J.J.J.` / P s t t @.g.@X:X;XS.S.G.G.G.V.!.C.H.F.+Xc.%.;.p.+.+.M.L v._ ( W ! z s s c y e n v v h g h b f e ",
", t 0 u i i v C / e.J.J.J.J.J./ P I , s P p.+X@X=XW.V.S.G.!.V.;XS.A.y.7.d.%.%.4.O.+.L L _ _ ( ( Q z s g c y c  .n n b h b b j r ",
"< & 9 u i i y B P ] u.J.U.U.J.} / P a a A 7.k.D.@X=XC.S.C.!.;XF.r.A.k.1.6.;.6.$.O.O.L L _ _ ) W R x 5 g b e n  .n v b b h k j a ",
"< < 9 u i p g l I / e.J.Y.Y.J.w.P x t < A 8.7.h.D.W.S.S.r.y.V.r.q.k.K.%.d.%.d.d.5.5.K H G _ W E I 5 4 a  .e e o.N n M D C C 6 5 ",
"0 u u u i i i s s / e.J.U.Y.J.J./ P d s V <.3.h.h.W.-XV._ K K ~ q.@XK.&.%.f.l.l.l.0.K K G H E R x 5 * a e e  .e N N D ! Q Q H H ",
", u u i p i g u 5 R e.J.U.U.J.` / 8 5 5 d P 8.h.y.@X;XQ._ 6 6 H y.$Xz.&.d..X.X*X+Xx.0.Q H H F F 8 4 = q e e  . .N V C Q ^ ) ( W ",
"t u u i u p u u < x w.e.K.J.} W R 5 5 , h 1.0.c.A.W.#X!.S.~ H y.Q.@Xx.d.z..X*X2X1X*Xk.8.! 7 x 7 8 < % 0 e  .e  .N V R ~ _ ] ' | ",
"t y y i i i u < < 8 / ] u.u.] W R 5 5 ; d t.x.D.D.W.W.=X;XQ.A.W.=XW.K.d.oX*X5X9X5X&XoXg.2.H x 6 5 < = t e i n  .b z R ) { n.m.b.",
"f y i v B g u < < 8 ! ^ e.u.] W F 5 5 = V g.+X@X@X:X-XW.-X!.W.!.!.Q.K.c.oX%X7XaX6X5X,XK.0.Q x 5 < 1 $ & w e e c h 7 E ( b.n.m.m.",
"n N N N B p g s 4 7 R ^ e.e.] W F 8 ; 5 ! k.+X5X5X<X>X!.Q.Q.F.S.S.!.$X,X*X9XeX8XsX8X,XE.h.3.x 5 5 < < t y n n v j 7 E ( n.I.I.I.",
"..X...@.@.P P B l P ! ^ ] e.^ / H 5 5 k 7.x.&XtXtX:X!.=XW.V.V.F.!.!.<XSX9XeX9XUX7X6X,X+Xx.3.J 5 5 4 , y c n N Z V x E [ L.I.I.I.",
"Z O.@.<.<.@.A A z l ~ Q ! ^ ^ H x 6 z S 7.x.7XLXIX:X-X^.G.S.F.F.Q.Q.9XAXsXUXeX7X8X8X5X&Xk.g.1.5 4 a g b n Z Z A C J W ] C.Y.L.P.",
"..1.4.<.4.<.P S C A C J ~ ~ Q H 6 5 V <.z.hXvXbXGX<X!.-X=XG.V.!.Q.^.mXJXbXUXsX7X5X5X+X+Xl.0.! 5 a d h b M Z X.S C ! ~ 9.C.L.Y.n.",
"..<.4.7.6.1.S @.C C x k J x x 7 x z J p.vXCXhXSXLXyX-XF.!.S.B.F.T.>XmXAXJXNXBXhX7X8X>X.Xs.7.D 4 , a g b N X.X.S S J Q ) [ C.n.n.",
"..4.6.5.6.<.....D S V r H 5 x k 4 k <.cXCXNXKXJXLXPXeXF.=XG.V.F.S.yXLXJXZXNXSXbXnXxXsX@X4.3.k 4 ; 4 h M Z N A Z S C ! ^ e.r.r.b.",
"<.4.7.7.7.4.....S D C k k 5 x 5 4 A vXSXDXDXFXKXGXLXPXeX>XW.F.>XeXPXLXJXZXfXNXvXbXVXcXcX5.D 4 4 , a h M Z N Z Z A A C ! ) ) ] ) ",
"..4.7.p.7.4.S ..@.V z d d 5 ; h x.bXbXDXDXDXkXDXPXLXPXMXmXeX8XnXLXPXbXJXDXcXvXBXvXJXAXLX9X* d = a s h Z Z X.X.X.Z V z ! 2.3.) ^ ",
"..4.7.7.5.@.Z Z Z V f j a j % x.HXSXDXNXDXlXDXDXHXIXPXPXLXLXLXLXGXPXBXKXZXkXNXKXvXJXLXJXLXX.r - 4 4 d M M N X.Z X.M M S ! 2.~ ~ ",
"..5.7.p.7.1.D D V S h a a g ; nXLXJXDXNXlXlXNXDXKXGXPXIXxXbXGXBXmXGXSXHXNXkXNXNXUXKXJXJXLX+X. a * < a h M N N X.X.N n P 1.8.2.1.",
"Z 5.7.7.5.@.N N m A a g h = 2.LXKXJXKXjXdXlXzXDXJXHXHXbXhXxXvXSXAXAXJXVXFXkXzXkX6XKXKXDXAX7Xj % * , a h b Z Z o.Z N N Z <.8.1.1.",
"S <.7.7.7.O.A V b V f a f q .XGXDXKXDXpXiXiXlXFXHXSXSXSX5XkXFXFXJXAXVXBXIXkX6X4XpXDXSXFXAX7Xm $ 4 4 4 s b b N N N N N Z <.6.<.1.",
"m 1.<.1.4.D d j j a * q & 0 6XcXSXKXDX3XgX2XFXZXKXSXSXSXrXkXDXNXVXGXGXIXIX6X4X4XdXKXSXBXAXxX4.@ * * t a f g v v v N v Z <.4.4.<.",
"h S 1.1.S z 4 q t * % $ @ v cXcXFXSXHXpX2XgXlXFXDXKXHXBXlXjXjXNXSXHXMXbXrX6X4X4XdXJXCXSXAXcXc.$ = = = = t a a f f c b N <.<.1.1.",
"b ! 1.1.J k a 4 a ; & % @ @.rXBXSXvXDXfX3XdXjXZXDXHXHXBXjXkXdXlXJXAXIXtXrXrX6X4XiXZXNXVXVXxXx.@ $ $ = & * a t a q q q b A ..A A ",
"C 1.8.2.1.J z z d h t y # d.6XSXbXnXDXvXfXDXZXJXKXHXHXBXpXkXkXzXAXGXnXyX,X5X6XOXiXZXCXbXbXxX*X% = & = < t a f f r a f d ....A C ",
"1.8.7.3.3.1.! 1.! @.b N u l.kXbXxXxXHXcXNXJXDXfXhXKXSXSX3XdXzXdXCXPXmXyXQ.,XrX4XdXcXZXbXnXnX*Xq , t t s h M b V V Z Z S 1.<.<.1.",
"8.0.g.0.0.3.3.3.3.8.P P l z.xXvXrXvXCXcXNXNXcX Xp.KXSXHX4X2XkXjXAXGXmXyXK.,XkX4XfXfXcXUXxXxX%Xq s s l l D C S C S ! J 1.8.5.8.8.",
"e.y.k.k.h.h.h.y.t.t.w.w.1.,XxXnXtX7XcXcXFXkXOX%.8.6XHXGX6X3XDXzXIXLXmXyXtXxXdXiXkX6X5X7XxXcX%Xu b l D S ! 1.1.<.3.8.8.7.3.w.0.7.",
"k.E.E.Q.D.E.E.E.K.K.h.t.0.rXnXvXxXhXsXkXlXaXoXf.oX,XHXIXvXvXDXjXnXMXMXMXnXcXdXiX4X%X7XbXnXnXoXc C ! ! 8.7.w.7.w.0.t.t.t.g.h.h.h.",
"Q.#X#X#X$X$X$X#XW.E.E.K.k.xXIXbXxXhX3XdXNXpXOX4XDXLXIXKXjXhXNXkXSXbXMXMXnXsX2XXX4Xc.@X@Xq.k * J 1.2.3.0.t.t.h.g.c.k.k.k.k.x.E.k.",
"W.W.,X-X-X,X-X#X-X#XW.E.E.xXGXbXbXcX1XaXkX2X6XNXSXbXGXGX6XvXFXjXbXHXGXGXbX6XOXXX%X<     O 6 D D 1.3.0.0.t.g.h.k.k.k.k.k.E.D.D.E.",
"E.W.#X#X#X#X#X-X#X#X$X@X&XnXVXbXZXjXoX4XOXoXpXzXDXGXHXKX*X6X2X&.OXSXSXGXvXaXOXOXc.X   ~ q.K K K 2.3.0.t.y.h.h.h.h.k.k.k.k.k.E.D.",
"E.E.@XW.@XW.W.W.W.#X-X$X:XxXCXbXZXjX XOXOXoXOXpXDXGXPX6X4.jX%.z.@.6XCXVXUX3XXX2X%.X O > K K q.K 2.9.t.0.0.t.t.t.t.t.t.y.y.y.k.A.",
"h.k.K.k.k.A.A.A.Q.E.Q.W.9XnXCXCXFXzX,.OXpX XOXpXBXDXGX+Xp.*X.XFXa.*XJXCXUX3XXXgXp.X O K q.K 2.^ 2.9.0.3.3.3.3.3.3.3.3.9.7.e.t.y.",
"^ e.e.e.e.e.e.e.e.u.A.D.9XcXCXCXlXkX-.,.zXXXoX4XBXvXGXbXg..XOXDX1Xl.KXvXcX3XOXiX6.X O > K L q.3.K 3.3.Q ! ~ 2.Q ! Q ! Q Q ~ 9.e.",
"I I F R E Y Y Y W ] e.t.5XSXSXDXNXpX=. XzX2XoXOXNXbXAXxXg..XoXFX*Xl.GXSXfXaXiX2X%.X X r F.O.: ! R Q / P I I B 8 8 8 8 8 8 7 H Q ",
"2 2 3 3 3 3 3 3 3 7 / w.rXPXVXNXcXaXa. XzXgXOX3XsXHXAXbXp..XoXvX*Xl.AXBXvX3XiXaXP X       O 3./ 7 I 7 1 1 1 1 1 + + + 1 1 1 2 7 ",
"U U U U U U U U U U E u.8XPXHXDXvXaXf.oXkXgXgX4XsXJXbXbX6..XoXiX%X7.LXbXxX1XOXjXP X - s.9XmXPXW.7 Y I 3 2 3 1 1 2 2 2 2 2 2 3 Y ",
"Y.U.U.L.L.L.P.P.P.{ J.Q.tXGXCXBXjX4Xf.oXzXpXdX2XcXGXcXbXl.l..XcX6X! KXbXvXkX1XaXP 2 J &XeXwX<Xu.[ { J.` ` } ` J.U ` U ` U U ` T ",
"R.R.R.R.R.R.T.T.R.R.R.<XIXMXGXIXxX+Xd.z.jXkXhX4XvXKXnXbXl..Xp.DXx.s.AXCXvXNX1XaXw.w.t.F.=X;X-X/.T.T.T.T.T.Y.T.Y.Y.Y.Y.P.L.Y.L.L.",
"(._.]._.).(.).).]./.[.yXMXPXLXGXnX*Xg.z.hXjXaX4XbXAXbXAX4.1Xi.l...7XJXCXcXaX1XaXu.u.k.F.F.;X/.`.`._._.R.(.(.(.(.(.(.(.(.(.R.R.R.",
").{.{.{.|.).|.'.].[.uXuXMXPXKXbXbX5X,XoXkXvXaX6XVXnXAXGXl.aXOXi.%XJXAXZXZXsX3X7X,X/.r.G.G.~.`.`.[.].[.].'.].'.'.].].{.'.{.'.'.(.",
"{.{.}.{.|.).|.{.}.uXuXuXuXyXGXIXtX5XrX5XhXDX6XaXGXAXAXAXxXkXvXDXKXbXJXZXUXfX3X7X/.yXV.B.C.^./.[.}.}.}.{.].}.].].}.}.}.}.}.}.{.|."
};
