/* XPM */
static char *aeb9b5e9823048aef4acfa0828d6f1c19T8IkV5k2T5tGqzD[] = {
/* columns rows colors chars-per-pixel */
"64 64 256 2 ",
"   c #230000",
".  c #5A3813",
"X  c #773F11",
"o  c #735129",
"O  c #684521",
"+  c #7A6146",
"@  c #8D4B1C",
"#  c #AF651E",
"$  c #8A5727",
"%  c #985929",
"&  c #975B35",
"*  c #8B522B",
"=  c #A55D2E",
"-  c #9B662A",
";  c #9A6439",
":  c #8B673A",
">  c #A4642D",
",  c #A86738",
"<  c #B36D39",
"1  c #A8743C",
"2  c #B47A39",
"3  c #AB742E",
"4  c #CA7A2C",
"5  c #9B6844",
"6  c #9A7648",
"7  c #977A57",
"8  c #8A6A48",
"9  c #A66C45",
"0  c #AC7A4B",
"q  c #A87546",
"w  c #B37542",
"e  c #B37C4C",
"r  c #B87947",
"t  c #A97B53",
"y  c #B37C55",
"u  c #B36D42",
"i  c #A17F63",
"p  c #C37D4A",
"a  c #CB7B54",
"s  c #B6813B",
"d  c #CD8639",
"f  c #EB9333",
"g  c #AB814A",
"h  c #BB834D",
"j  c #B6864B",
"k  c #A98558",
"l  c #B48454",
"z  c #BC8453",
"x  c #BB8A54",
"c  c #B4845A",
"v  c #BC8C5C",
"b  c #B68959",
"n  c #BB925B",
"m  c #AE9159",
"M  c #9F8766",
"N  c #A98A66",
"B  c #B78B64",
"V  c #AE936A",
"C  c #BD9264",
"Z  c #B99769",
"A  c #BC9C74",
"S  c #B79776",
"D  c #AC8F72",
"F  c #BCA27A",
"G  c #C38A4C",
"H  c #C5844B",
"J  c #C98C54",
"K  c #C38D5B",
"L  c #C68856",
"P  c #C4925C",
"I  c #CC935C",
"U  c #CA9557",
"Y  c #D5975C",
"T  c #D59352",
"R  c #E99C51",
"E  c #D4A159",
"W  c #EEA95A",
"Q  c #C58C62",
"!  c #C49564",
"~  c #CA9563",
"^  c #CC9A64",
"/  c #C3956A",
"(  c #C49B6B",
")  c #CB9C6B",
"_  c #C59965",
"`  c #D39C64",
"'  c #DA9D64",
"]  c #D39C6A",
"[  c #D59765",
"{  c #C39D73",
"}  c #CB9E73",
"|  c #C49D7B",
" . c #D39D72",
".. c #D38F60",
"X. c #E39B68",
"o. c #C9A26B",
"O. c #D4A36C",
"+. c #DBA46B",
"@. c #DDAB6C",
"#. c #D8A465",
"$. c #C5A273",
"%. c #CBA474",
"&. c #C5A37C",
"*. c #CCA47C",
"=. c #CBAA7B",
"-. c #C7AA78",
";. c #D4A473",
":. c #DBA573",
">. c #D5AA74",
",. c #DCAB74",
"<. c #D3A57A",
"1. c #D4AB7B",
"2. c #DCAC7B",
"3. c #DFA779",
"4. c #D3B17C",
"5. c #DDB27C",
"6. c #DBB578",
"7. c #CDB17F",
"8. c #E4AB6C",
"9. c #E6A66A",
"0. c #E3AC74",
"q. c #E3AD7B",
"w. c #E7A977",
"e. c #E4B47C",
"r. c #ECB47C",
"t. c #E9B779",
"y. c #F4B77A",
"u. c #EDB06C",
"i. c #FBC57E",
"p. c #BBA587",
"a. c #B59C89",
"s. c #CCAC83",
"d. c #C6AB87",
"f. c #D3AD82",
"g. c #DAAE83",
"h. c #D4AC88",
"j. c #C9B38A",
"k. c #D5B184",
"l. c #DCB383",
"z. c #D3B38C",
"x. c #DAB58C",
"c. c #D4BA8C",
"v. c #DDBA8C",
"b. c #DDB984",
"n. c #CBB797",
"m. c #DBBB94",
"M. c #D7BA97",
"N. c #CBAB94",
"B. c #E5AE83",
"V. c #E3B483",
"C. c #E4BA84",
"Z. c #EBBB84",
"A. c #E3B68A",
"S. c #E4BB8C",
"D. c #EBBC8B",
"F. c #EBB685",
"G. c #F1BC83",
"H. c #F4BA88",
"J. c #E3BC93",
"K. c #EBBD92",
"L. c #E3BC99",
"P. c #F3BA8E",
"I. c #D5BEA4",
"U. c #E7BEA5",
"Y. c #DBC39B",
"T. c #D8C399",
"R. c #D5C192",
"E. c #ECC28D",
"W. c #E6C389",
"Q. c #F3C38D",
"!. c #FAC38B",
"~. c #F6C589",
"^. c #E4C294",
"/. c #ECC494",
"(. c #ECCA95",
"). c #E4C39B",
"_. c #EBC59B",
"`. c #ECCA9C",
"'. c #E4CB9C",
"]. c #F3C494",
"[. c #F3CA95",
"{. c #FCCC94",
"}. c #F3CC9C",
"|. c #FBCD9C",
" X c #F6C598",
".X c #EBD19C",
"XX c #FDD49C",
"oX c #F5D29A",
"OX c #EBD58C",
"+X c #DCC4A3",
"@X c #D9C7A7",
"#X c #D7CBAE",
"$X c #E4C5A3",
"%X c #E4CBA4",
"&X c #EBCBA4",
"*X c #E5CCAB",
"=X c #ECCDAB",
"-X c #E9C6A5",
";X c #F3CCA2",
":X c #F3CEAB",
">X c #F8CBA3",
",X c #EDD2A5",
"<X c #E4D2AC",
"1X c #ECD2AB",
"2X c #ECD7A8",
"3X c #F4D3A5",
"4X c #FCD4A4",
"5X c #F4D4AC",
"6X c #FBD5AB",
"7X c #F4DAAD",
"8X c #FCDBAC",
"9X c #FEDBA4",
"0X c #E7CDB2",
"qX c #E5D3B4",
"wX c #ECD4B4",
"eX c #EBDAB5",
"rX c #EBD8BB",
"tX c #F3D5B3",
"yX c #F4DBB4",
"uX c #FBDCB3",
"iX c #F4DDBB",
"pX c #FCDDBA",
"aX c #F8D6B6",
"sX c #F3CAB4",
"dX c #FDE2AE",
"fX c #ECE1BD",
"gX c #FDE3B4",
"hX c #F5E2BC",
"jX c #FCE3BC",
"kX c #FDEABD",
"lX c #F8E5B5",
"zX c #FCF4BC",
"xX c #ECDCC3",
"cX c #F4DDC2",
"vX c #F9DDC2",
"bX c #ECE4C8",
"nX c #F5E3C3",
"mX c #FCE5C3",
"MX c #FCEAC4",
"NX c #F5E4CA",
"BX c #FCE4CB",
"VX c #F4EBCB",
"CX c #FDEBCC",
"ZX c #F6EBC4",
"AX c #FEF2CC",
"SX c #FDF3C5",
"DX c #FCEDD3",
"FX c #F8EBD6",
"GX c #FEF2D3",
"HX c #FDF3DB",
"JX c #FCF8D8",
"KX c #EFECD6",
"LX c #FEFBE3",
"PX c #FFFEEB",
"IX c #FDF3E4",
"UX c #FBF0E4",
/* pixels */
"b n v b b n %.b.^.C._ g 0 1 l g K K ^ P v b q 1 1 0 0 [ e & Q k v * & & @ @ @ * > r & , & , x 9 K I I J G O.,.o.I T U ^ I P j h ",
"P ^ _ _ 0.P P I b o.O.! o.K 1 2 l j C.Z.) ].) 0 0 l b g t  .<.5 & & & @ , L , * H r % & & 1 , w w r I G Y J I G ` ` #.P ^ I ^ G ",
"4.v.v./.%.t K y n S./ *.A.0 1 1 0 g x O.O.P O.~ 3./ / ! y t 9 & 5 5 5 & 9.w.w % G % % % w < - w r J J J G Y T J #.O.O.O.O.;.^ ^ ",
"-.).z.&X)./ b :.k._.).&X).6 q w 1 O.O.h K v ^ x _ _ / V.g.5 i 5 5 5 5 5 w ' H - ; z b $ , K I H Y J L Y P ^ Y J ^ 3.Z.;.;.] >._ ",
"1.A.g.{ <.! P #.b / s.*._.v , e j ] q.] e e h K K x ;.C / c t 9 : & & & X ..9.h Q [.3.[ z h K H u.' )  XV.S.1.B.D.D.{.5.>._ O._ ",
"g.}.K.v C ( C ! P P / ! ) 0 L h z v x ^ K 0 K z z K ! Q v y 9 5 9 ; y ~ u p p , 9 ] P.:.h r w [ 9.' ` ;.K._.J._.Q.l.e.[.~.Z.,.>.",
"s.s.A k C *.$.g.:.) ) ) ) ) ) ~ l v n 0 0 y / ) :.;.) / B y y t 5 & y y 2 @ > % 1 w < = > , ' ' ..` L K ) B.l.l.V.F.~.~.{.t.e.O.",
"1.b ) ! :.~ } ) %.k.v.`.S.1.{ *.) ( _ ) / g.} ( %.>.%.C B t B t 9 5 & % = % = % % < J 2 > r H H K I ` #.I I I ] V.t.~.~.t.~.t.O.",
"h.s.k.*.k.%.k.^.&XL.tXwX0X-X%.#.;.g.m.wXiX0X`./.}.S. .) Q y y 9 5 ; % $ % % = p = < X.< p H [ I ` 9.8.r.+.' ' +.8.8.8.8.@.E.t.t.",
"m.J.l.C 1.} l._.^.$X).5X=X:X&X&XS.5.(.E./._.g.;.}.S.C.2.%.v c t 5 5 & & & * @ a < h h > H ..p ..] ] ' w.0.8.@.#.@.8.8.@.t.C.e.D.",
"{ 1.1.<.] Q c } s.z.z.A.5.%.L.cXpX)./.{.[.A.l.l.S./.D.! z l y e 5 9 & ; & & = @ r [ 2 % Q z ! )  .] K +.' #.8.#.8.#.8.i.E.XX5.W.",
"b / %.o.Q b q P g.*.x.<.O.x 1.yX_./.~.+.L Y O.,.;.3. .w r I Q 9 q & * & = % < = > % ; < e w K 3.A.} z J Y ' [ h G 9.y.P.[.4Xo.e.",
"<.t b c z ;.F.I 0.} *.1.+.#.>.}.{ %./.4XQ.:.0.~.D.D.P.[ ~ Q Q y 9 9 5 * u p < < L Y K u y y a 2.Z.q.` Y I 0.P.D.u.H.G.D.>X>X9X[.",
"! Q Z b ! ;.O.o.U O.1.4.5.,.V._.J.6X6X5Xf.Z C.~.3X[.|.C.;.! / } y y 5 & , u % = < < , w r r K  .9.X.9.w.,.,.>.o.2.[.~.E.XXoX8XuX",
"x n ! 1.k.V.1.1.%.S.D.C.S.5.K.|.4XoX}.D.D.XX{.~.[.D.C.0.:.^ _ t t i t 5 & r a X.~ ] q.r a L L I R ' r.!.y.e.O.t._.D.~.{.~.9X4X4X",
"U ,.[.`.m.g./.&XwX5XS.Q././.D.[.:X3X(.E.E.].}./.e.,.+.8.' ' :.x t t y 9 u = % L x B.H.+.~ ] +.w.' +.r.y.y.~.t.y.[.Z.!.{.!.Q.{.{.",
"-X^.}./.C.Z.Q.XX}.XX[.Y.wX5X(.(.3X6X_._.;X5X'.j.e.t.D.Z.9.Y 9.{ y q 9 y & & 9 u , r L ..w z [ 0.D.y.W u.(.5X;XZ.y.~.~.Q.].|.|.[.",
" X4XQ.~.{.{.oX|.4X9X6X3Xm.m.5X8X].2.[.XXQ.D.1.E.T.}.Q.>.f. .c {  .y , , , u = u 9 & y x ] J K ..q.H.u.' W.W.G.F.t.r.!.Q.D.V.Q.E.",
"~.D.P.4X5X4X`.oX4XtXsX&Xs.AXeX).oX[._.E.]./.C.b.MX=XJ.c.x.S 7 5X<.9 u = , 9 & = B Q Q L [ I I Y 9.#.8.0.~.XXZ.XX|.|.P.{.].XXoXZ.",
"aX1XyXyX=XyX=X=XyXcXNX*X+XMXVXHXpX&Xs.s.z.F F z.m.m.tX5XB : { iX-Xc = = 9 q I p 9 y L a H J J w e P J y.{.Q.3.W.C.[.}.[.V.2.;.>.",
"%XhXNXcX0Xn.T.,XMXnXDX#X@X<XwXPXyX+XiXhXd.<X*XwX4.g.A.b.1.;.4.d.pX} < = ..>X!.y...u r y K 1.%.t B -.S.H.r.9.!.D./.oX}.v.{ A N S ",
"5X5XtXyXyX1XiXmXyXuX3XCXY.-.v.<X-XjX5X5XkXuXjXaX3X4Xw.e.E.g.%.1.x.B.a = , L ..p y 9 Q A.=XjXCXVX,X2X4XB.y.H.].&XF.D.4X>XgX1XiXAX",
"5X5XnXvXiXGXmX1XaX5XuXuX5X).3XS.J.6X8XuX;X).( 9X5X[.H.].W._.J.J.h.h.[ u < L K e y y B s.5X@XwXxX/.S.,.r.D.x.^.c.l D./.m.N %XCXAX",
"IXxXn.#X<X0X=XaXvXyXyXtXaXcXpX/.<.k v.aX5X$.6 %.m g. X`..XJ.s.D V | f.z ..B.2.K. .Q  .>Xv.z.| x.;X/.D.C.^.V / { ^.`.b.b.k.).5XV ",
"VXrX*X:X}.^.A -XyXaX5X1XaXvXiX7 k z.wXcXnXyX8X^..XyXvXNXqX+X^.B nXL.a { ] p a L J.tXL._.pXhXyX}._.aXiXuX:X=.J.gX{.`.pXhXyX7X`.v.",
"^.f.-XiXbXxX@X%XiXyXaXtXeX<X).Y.2XkXZXVXFXGXwXiX-XY.LXPXUXHXM.B cXtXL.L a 9 a 9.r.>X:X*._.=Xm.L.Q.K.}.].V.|.C.^.Y.eXnXqXM.+XY.qX",
"! B k.Y.N.HX@XT.D j.mXpXCXiX1XSXDXVXDXDXJX<Xn.lX3XnXLXHXI.N z.iXVXiXD 7 k l / e B -XJ.<./ k B l.P.S./.g.%.v.k.V F 1X&X).4.>.^.^.",
"=XuX&XM.0XxXd.2XjX-X1XMXHXHXVXDXGXHXbXxXCXFXFXLXLXPXKXFXGXnXDXJXAX:X_.AXSX>X}.$.S._.pXjX_.{ &.tXiXiXDXVXCXJXFXVXnXqXPXLXPXJXfXn.",
"m.,X<XKXPXHXd.Z MX1X1XhXDXNXHXHXmXs.k g.t A s.z.n.p.mXcXqXrX*XM.N *.uX>X_.K.D.g.D.%.m.z.m._.: n.wXNXNXNXqX+X@X<X1.k d.%X+XY.F =.",
"*.m.h.D N.p.d.&XmXhXnXMXNXnXqXVXUXHXxXiX1XhXiXhX%X=XaX&.$.-.k N t / y q ) g.g.{ S r I } 7 o c j 6 V 7 7 k : 7 N 6 Z %.o.=.Z (.(.",
"lXyXd.%XVXJXLXLXHXqXN BXAXVXCXBXrX*Xn.V $X1X-XT.%X3X6.@.,.o.=.7X&Xx.} oX[.F.F.D.0.u.9.[.pXM.} ~ S.%.%.x.=.`.6XY.iX1X$.$.9X^.'.(.",
"&.z.+X$X#X+X+XI.j.S #XAXCXDXFXn.S m.3XdX(.n l W.1XGXCXhX_.8 BXGXhXpX<.,.H.H.B.] T 9./.m.C.Y s 4.).3X1X+XiXCXVXCXnXMX1X<XfXj.k n ",
"3X8X5X3XpX5Xs.&.=XpXhXDXFXcXhXm.jXzXlXjXSX7X&.JXLXLXFXCXjXc.m.$X&XQ.{ |  .w.1.m.rXE.tX/ 4 W Z.MXGXMX8X6X%XlXMXCXNXCXMXkXlXf.+XLX",
"wXCXqXnXM.j.W.C.*XyXJXFXVXLXmXwXpX1XjXjXkX^.k JXGXNXmXiXMXR.d.1Xh.S.8XjXXXoXS.K.4X9XwX_.Q s.f.*.f.^.J.m.S n.%X&.>.b.^.^._.k : n ",
"M.N.=XD s.1X7X6X@XqXVXDXHXFXAXCXVXMXSXwXD t f.A $.=.$.=.;X&XtXMX XP.D.q.' h e w z ..0 6 t 6 - 1 C n 0 8 d.iXgX^.Z 6 - j g ;.}.2.",
"rXd.m %.dXyXGXVXHXGXDXVXGXCXAXCXJXpXZXfX<X'.7X+XgX;.6.9X6XuXjX,X,.W._.K ] 4X1X(.=X:XMXnXvXjXOXZXJXkXdXZ I.DXVXJXPXVXo.#.0.kXVXDX",
"PXGXV ^.gX5XlXAXhXMXCXCXhXjXBXGXyXuXzXZXMXgXkXhX9XE.5.dX6X$X3X3X4XaX3XP.4XCXDXCXCXZXbXHXVXFXFXDXgXdXoX0 yXCXAXkXGXJXV j y.dXzXjX",
"7 k j.8XuXhXiXmXyXhXBXMXmX,XyXhX2X8XkXAXAXjX7XuXyX7X2XgXuXJ.Z :XuXS.w.W ~.gXpXmX1X7XdXmXNXF S 2.O.4.{ V ).aX&.C S 6 $ q - 1 x >.",
"(.6XuXAXeXqXMXMXdXjXAXiXjX8XhXMX8X>X6XhXeXlXjX1XjXmXjXhXlXMXuXyX8X}.y.!.XX4XXX,XsXMX4XDXVX6 I x A wXBXLXGXY.S ).bX@X=.W.Z m k >.",
"F 7 7 F Z V %.2.k.m.F cXpXuXjXnXkXc.*XGXSXlX6X%XjXCXGXVXjXkXBXiXm.m.1.*.+Xv.@.2.Z.bXjXjXp.0 / N ^.m.d.+X.XZ R.&Xp.k +.@.j b E i.",
"M R.kXyX+X%X5XrX_ =.%XMXhXpXZXVXfX+X%X%X#XbXxXR.eXHXGXDXmXlXhXNXv.C 9 c e.U 6.`.=XdXtXDX#XnXhXiXgXyXiXyXCX,X1X).T.yX6X4XW.6.E x ",
"MX>X4XyXY.,X).SX7 1XiX<XFXKXKXIXHXPXY.k /.&XyX1XeXiXNXDXcXwXjX6X4X8XA.).9XQ.4XjX7XE.H.q.1XrXMXBXCXCXBXCXmXtXhXMXkXkXwX3X~.` ).DX",
"JXyXyXVXCXkX7X1X: 8XAXjXGXAXPXUXUXbX@Xn.JXGXNXDXfXZXBXHXDXnX5XD.t.9X,X^.dXkXkXAXaXK.8.>.aXmXaXjXyXpX5XuXoXS.6 k + 8 : C.y.u.6.^.",
"s.+XeXnXrX@X1XN -.<XeX#X*XeXFXbX).c.F p.*X1XZXFXnXVXrXeXn.T.S.B.w.J.*.%.K.m.M.| *.^ F.;XY.'.4X~ +.t | M.: 6 n ` + O j q B N 6 - ",
"@.e.E.).s.d.8 F 3XZ m Z -.c.Z 6 0 4.f.7X1Xz.2XI.8 S a.N o o.S.Q # - 0 1 x b b H L h @.>X}.`.).L.d.M.B ;.5._.CXGXzXkX7Xb.S 8 Z f.",
"%.&.&.V F S F -.! ; $ s s s 3 1 m v.v.A B 1.m g %.yX=XM.k.5.C ( g.M.z.J.J.)._.S. .l..XSXvX:X5XnX:X6Xs.h.^.&.&XjXNXnXlX.X6 A.kXkX",
"*XLXKXGXGXLXGXgXrXqXT.T.O.j d.*XjXNXxXKXLXHXjX_ kXCXMXjXkXdX4X8XhX8XgXgXyXuX9XkXZ o P _ S j.gXuX4X8X4X1.e.P ) %.S k 1.q g o.g 6 ",
"c.hXAXnXiXFXUXLXLXPXIXDXGXp.o O O . . ,XAXDXNXm.FXnXuX3X3X8XaXuX4X].Q.}.4X X].4Xq T d # 4 ; 3XlXnXtXuXC.t.! /.gXpXtXjXjXjX1X).k.",
"gXJXHXVXCXJXHXIXIXZXDXHXVXa.  O X . o dXSXhXCX%XmXcXBXiX8X4XuXyX3X8XuXuXdX{.XXP.E U 4 f f f S.NXuX6XpX>XS.l.4XjXuX8X6XpXmXSXAXUX",
"V $XcXnX%XsXyXhX'.iXnX1XSXN : @.` x s n _.j.s.f.^.9X}./.).}.J.].P.K.&X;XS.-X=Xq.8.u.2 2 H d I 3.[ g.Z c 2./.uXuXmXpX5XuXv.=.5.v.",
"f.s.f.,.^ J.m.C.b.3X1XvX0X$.) #.I J j j ( 1.O.#.4.t.,.,.v.&XJ.q.<.` 9.e.^.6X5XiX4XdX/.&XE.8.+.' q.F.` e.]./.6X/.(.4.,.C.S.M.S.:.",
">X,Xm./.D.).&X2.>.6XsXrXvX=Xk.0.#.` P b.3X/.A.G.t.t.e.E.}.S.1.2.' <.@.8.).mX7XNX8XeX:X4XZ.F.K.].;XD.H.e.E.x.S.3.Y Q.A.].^.wXiX).",
"=X,XeXVXNXhXjX=X(.^.$XaXhX%X&X;X;X:XJ._.).Y.v.6.e.b.&X).v.l.[.J.8.] A.P.Q.9X6X/./.$XS.}.D.P.L.h.M._.1.2.S.%.) ,.w.M.@X&XJ.J.M.M.",
"Y.jX8XXXQ.,XCXiXBXgX&XeXiXlXpXvXhXlX%X=XM.d.S ).`.yXn.Y.&XuX8XjX3Xi.y.|.u.W XXA.0.C.E.B }  X&X$X$X=XJ._.*.f.>X>XM.M.-X%X).A _.v.",
"lXpX}.R R 8XrX).+XvX1X`.aXwXmXcXcX*XgXaX*X1XyXgXyXwXmXuX:X&.&XyX8XE.H.W R i.(.{.!.}.E.x.>X:.>X_.m.| h.*.}._.J.5XcXaX8X}.Y.,X8X^.",
"rX_.4X[.lXgXM.c.<X&XW.(.sX^.OX1X%X5X3XoXm.uXyX1X@X<X,X5Xd.m.:X_.;X:Xy.!.x.K.!.}.[.:X_.].H.B.g.} } L.Y.-XJ.A.J.mXaX5X%X'.Z.y.E.'.",
"`.^.m.gXpXx.-XeXZ.^.wXiX^.(.^.wX~.Y.R.Y.pXmXcX@XeXmXm.z.8XoX_.aX9XH.X.f.U.|.].A.h.K.K.B.P.F. .| x.].y.0.F.U.L..X;XwX=Xr.y.[.;Xy.",
"m.0XiXjXm.*XCX&X`.7X;X5X%XY.&X5X(.`.5X'.gX5X*XmXyXn.N.[.[.1XvXuXK.w.w.5XCX6XA.>XD.P.B.w.X. . .P.V.Z.S.m.).S.|._.&X{.8.(.2X(.W.eX",
"rX0X$XY.&X^.3X,X,X7X6X`.%XyX6X^.5X{.@..X-XJ.4X.Xn.M.5X`.-XmX6X_.w.u.H.BXtX}.P. X;XB.w.w.w.,.w.w.r.P.S.;X/.oXXX|.D.t.[.5X/.W.[.p.",
"mXJ.^.eXjX`.^.1XCXiXeXyX3X_.dXdX,XW.OX.X'.|.`.M.rX5X(.^.1XaX&X^.y.y.y.;X-XK.D.^.K.A.B.w.B./. .B.>.&._.>X;X'..Xt.Q.^..X}.E.R.-.3 ",
"L.M.jX;X).qXcXpX+X7 j.&Xf.S.;X'.^.j.M F v.Y.p.eX$X).^.b.;XtXM.A. XF.q.S d.S { N V.! ! K K [ ] e.N M -.^.F V A A S 7 M k N 7 t q ",
"z.=.-.D.^.yX0XjXyX=.4.b.v._.`.^./.b.o.8.b.*Xz.#.&.$.Z / B { g.C K v ! /.L.L.K.F.0.H.+.r...9.8.G.C.~.4XMXlX@.T j U I W.6.P #.U o.",
"j.l x >.(.n @.4.( g P P O.t.>.[.>.#.Y 8.Z.{.n r n j U 1.k.n q 6 q y e e 4.5.D.r.,.r.r.y.9.0.r.' #.~.G.V.@.E T #.E @.8.j n _ x #.",
"DX=Xm I ( o.%.G G w j G E E O.`.6.@.u.~.(.2.*.$.E 6.D.D.C.b.4.3.c.S.] ` o.7.E.H.>.q.w.~ @.6.@.0.e.=.4.` s n o.P o.5.>.m o._ j C "
};
